<svg xmlns="http://www.w3.org/2000/svg" viewBox="0 0 389.8 322.16"><defs><style>.cls-1{fill:#bf1345;}.cls-2{fill:#14a5c0;}</style></defs><g id="レイヤー_2" data-name="レイヤー 2"><g id="logo_finish"><polygon class="cls-1" points="241.62 238.46 225.7 254.82 241.62 271.18 199.16 271.18 215.08 254.82 199.16 238.46 241.62 238.46"/><polygon class="cls-1" points="65.14 239.41 49.22 255.77 65.14 272.13 22.68 272.13 38.6 255.77 22.68 239.41 65.14 239.41"/><path class="cls-2" d="M320.71,38.69l-39.36,62.49L241.76,38.69h-40V192.83H108.93V81.41h50.36V38.69H.25V81.41h51V192.83H0V322.16H360.75l-.25-22.68h-.19l-41.89-41.89,42.08-42.08h0l.2-18.34h.05V38.69ZM24.53,64.08V58.22H135v5.86H84.21V182H75.33V64.08Zm199.94-5.86h5.92l51,80.3,50.74-80.3H338V182h-5.91v-112l-50.74,79.58-51-79.58V182h-5.92ZM150,215.51,124.51,241,99,215.51Zm-127.32,84v-84H70.74l39.63,39.63L66,299.48Zm71.63,0,30.2-30.2,30.2,30.2ZM176.48,293l-37.83-37.83,37.83-37.83Zm22.68,6.51v-84h48.9l42.08,42.08-41.89,41.89Zm132.86,0H276.53l27.75-27.75Zm-27.74-56-27.94-27.94h55.87Zm-54.1-50.62V142.92l20.67,32.37h20.92l20.52-32.37v49.91Z"/><path class="cls-2" d="M124.77,152h60.06V111.25H124.77Zm14.87-23.19h30.77v5.62H139.64Z"/><path class="cls-1" d="M385.38,66.35,369.7,60.92l3.84-42.83c.62-6.94-5.51-14-13.6-16.78h0c-8.09-2.8-17.25-1.07-21.06,4.77l-23.49,36L298.5,36.24c-6.76-2.34-8.43,2-4.64,8.25h0c3.07,5,8.88,9.77,13.47,11.36l5.82,2,48.34,16.75,4.82,1.67c4.59,1.59,12.07,1.48,17.6-.59h0C390.76,73.15,392.14,68.69,385.38,66.35Z"/><polygon class="cls-2" points="321.12 33.31 315.39 42.09 369.7 60.92 370.64 50.47 321.12 33.31"/></g></g></svg>